<svg xmlns="http://www.w3.org/2000/svg" xmlns:xlink="http://www.w3.org/1999/xlink" width="2000" zoomAndPan="magnify" viewBox="0 0 1500 1499.999933" height="2000" preserveAspectRatio="xMidYMid meet" version="1.0"><defs><clipPath id="56c4bb44ef"><path d="M 450.292969 422.71875 L 1049.542969 422.71875 L 1049.542969 1022.71875 L 450.292969 1022.71875 Z M 450.292969 422.71875 " clip-rule="nonzero"/></clipPath></defs><g clip-path="url(#56c4bb44ef)"><path fill="#ffffff" d="M 730.878906 422.71875 L 762.511719 422.71875 L 764.855469 423.304688 L 772.46875 423.890625 L 777.15625 424.476562 L 785.359375 425.0625 L 790.042969 425.648438 L 790.628906 426.234375 L 798.246094 426.820312 L 802.929688 427.992188 L 807.03125 428.578125 L 810.546875 429.75 L 814.644531 430.335938 L 824.019531 432.679688 L 828.703125 433.265625 L 833.390625 435.023438 L 835.734375 436.195312 L 839.835938 436.78125 L 839.835938 437.953125 L 845.691406 438.539062 L 846.863281 439.125 L 846.863281 440.296875 L 850.964844 440.882812 L 859.164062 443.8125 L 860.335938 444.984375 L 867.953125 447.328125 L 869.125 448.5 L 871.464844 449.085938 L 871.464844 450.257812 L 876.152344 451.429688 L 883.183594 454.945312 L 886.109375 456.703125 L 889.039062 457.875 L 889.039062 459.632812 L 891.96875 459.632812 L 891.96875 460.804688 L 894.898438 461.390625 L 899 463.148438 L 899 464.320312 L 901.925781 464.90625 L 911.886719 471.351562 L 917.15625 474.28125 L 918.914062 476.039062 L 923.015625 478.382812 L 923.015625 479.554688 L 925.945312 480.726562 L 927.703125 481.898438 L 927.703125 483.65625 L 931.214844 484.828125 L 935.316406 488.929688 L 939.417969 491.859375 L 939.417969 493.03125 L 942.34375 494.203125 L 945.859375 497.132812 L 945.859375 498.304688 L 947.617188 498.304688 L 950.546875 501.234375 L 951.71875 501.820312 L 951.71875 503.578125 L 954.648438 504.75 L 957.574219 507.679688 L 957.574219 508.851562 L 959.917969 510.023438 L 964.019531 514.125 L 964.019531 515.296875 L 966.363281 516.46875 L 968.707031 518.8125 L 968.707031 519.984375 L 971.046875 521.15625 L 971.046875 522.328125 L 972.804688 522.914062 L 976.320312 527.015625 L 976.320312 528.773438 L 978.664062 529.945312 L 979.25 532.289062 L 981.59375 533.460938 L 982.765625 534.632812 L 982.765625 536.390625 L 984.523438 536.976562 L 985.691406 539.90625 L 986.863281 539.90625 L 989.207031 543.421875 L 989.207031 545.179688 L 990.964844 545.765625 L 991.550781 547.523438 L 994.480469 549.867188 L 996.238281 553.96875 L 999.167969 556.898438 L 1002.679688 562.171875 L 1002.679688 564.515625 L 1004.4375 565.101562 L 1005.609375 569.203125 L 1006.78125 569.203125 L 1010.296875 575.648438 L 1011.46875 577.992188 L 1011.46875 580.335938 L 1013.226562 580.921875 L 1014.980469 584.4375 L 1014.980469 587.367188 L 1016.152344 587.367188 L 1016.152344 588.539062 L 1017.324219 588.539062 L 1021.425781 597.328125 L 1024.941406 604.359375 L 1028.453125 611.976562 L 1028.453125 614.320312 L 1029.625 614.320312 L 1030.796875 619.007812 L 1031.96875 619.59375 L 1033.726562 624.28125 L 1034.898438 628.96875 L 1035.484375 633.070312 L 1036.65625 633.070312 L 1037.242188 638.34375 L 1038.414062 638.34375 L 1039 645.375 L 1040.171875 645.375 L 1041.34375 650.648438 L 1042.511719 656.507812 L 1043.683594 660.609375 L 1043.683594 667.054688 L 1044.855469 667.054688 L 1044.855469 670.570312 L 1046.613281 678.1875 L 1048.371094 693.421875 L 1048.371094 701.625 L 1049.542969 701.625 L 1049.542969 742.054688 L 1047.785156 742.054688 L 1048.371094 743.8125 L 1049.542969 744.398438 L 1048.371094 751.429688 L 1047.199219 764.320312 L 1044.855469 773.695312 L 1044.855469 776.625 L 1043.683594 776.625 L 1044.269531 778.96875 L 1043.097656 783.070312 L 1041.929688 790.101562 L 1040.171875 798.304688 L 1039 798.304688 L 1038.414062 804.75 L 1036.65625 809.4375 L 1034.898438 815.882812 L 1033.726562 815.882812 L 1033.726562 820.570312 L 1033.140625 821.742188 L 1031.96875 821.742188 L 1031.96875 825.257812 L 1031.382812 826.429688 L 1030.210938 826.429688 L 1029.625 831.117188 L 1026.699219 835.804688 L 1024.941406 841.664062 L 1023.769531 842.25 L 1022.597656 845.765625 L 1020.839844 849.867188 L 1019.667969 849.867188 L 1019.082031 853.382812 L 1017.324219 857.484375 L 1014.980469 861 L 1014.394531 863.34375 L 1013.226562 863.34375 L 1012.640625 866.273438 L 1011.46875 866.273438 L 1010.882812 869.789062 L 1009.710938 869.789062 L 1009.125 872.71875 L 1007.367188 875.648438 L 1006.195312 875.648438 L 1005.023438 879.164062 L 1003.265625 881.507812 L 1002.679688 883.851562 L 1000.921875 883.851562 L 1000.335938 886.195312 L 998.582031 889.710938 L 995.652344 894.398438 L 991.550781 899.085938 L 988.621094 903.1875 L 987.449219 903.1875 L 986.863281 905.53125 L 985.691406 905.53125 L 985.109375 907.875 L 979.835938 913.734375 L 976.90625 917.835938 L 975.734375 917.835938 L 975.148438 920.179688 L 972.21875 923.109375 L 969.878906 925.453125 L 968.707031 925.453125 L 967.535156 928.382812 L 959.332031 936.585938 L 958.160156 936.585938 L 957.574219 938.34375 L 954.648438 941.273438 L 953.476562 941.273438 L 952.890625 943.617188 L 948.203125 947.132812 L 947.03125 947.132812 L 945.859375 949.476562 L 943.515625 950.0625 L 942.929688 952.40625 L 937.660156 957.09375 L 932.386719 961.195312 L 927.703125 964.710938 L 924.1875 967.640625 L 921.257812 968.8125 L 918.914062 971.15625 L 913.644531 974.085938 L 911.300781 975.84375 L 908.957031 975.84375 L 908.371094 977.601562 L 905.441406 977.601562 L 905.441406 979.359375 L 902.511719 981.117188 L 900.753906 981.117188 L 900.753906 982.289062 L 891.382812 986.976562 L 883.183594 991.664062 L 879.667969 991.664062 L 879.082031 993.421875 L 871.464844 996.351562 L 869.125 998.109375 L 865.023438 999.28125 L 857.992188 1002.210938 L 853.308594 1004.554688 L 848.621094 1006.3125 L 838.664062 1009.828125 L 832.21875 1011.585938 L 828.121094 1013.34375 L 822.261719 1014.515625 L 818.160156 1015.6875 L 803.515625 1018.617188 L 794.730469 1020.375 L 783.015625 1021.546875 L 780.085938 1022.132812 L 773.640625 1021.546875 L 773.640625 1022.71875 L 725.609375 1022.71875 L 725.023438 1022.132812 L 720.335938 1022.132812 L 719.164062 1021.546875 L 703.347656 1019.789062 L 699.25 1019.203125 L 694.5625 1018.617188 L 694.5625 1017.445312 L 687.53125 1016.859375 L 686.359375 1016.273438 L 680.503906 1015.6875 L 677.574219 1014.515625 L 671.714844 1013.34375 L 661.171875 1010.414062 L 660.585938 1008.65625 L 656.488281 1008.65625 L 654.730469 1007.484375 L 650.628906 1006.3125 L 650.628906 1005.140625 L 647.113281 1005.140625 L 641.257812 1002.210938 L 637.742188 1000.453125 L 632.46875 998.695312 L 630.125 997.523438 L 630.125 996.351562 L 627.199219 996.351562 L 622.511719 994.007812 L 616.066406 991.078125 L 612.554688 989.320312 L 612.554688 988.148438 L 609.625 987.5625 L 609.625 985.804688 L 606.695312 986.390625 L 602.59375 983.460938 L 596.152344 979.945312 L 584.4375 972.914062 L 583.265625 970.570312 L 579.75 969.398438 L 573.890625 965.296875 L 573.890625 964.125 L 570.964844 962.953125 L 566.863281 960.023438 L 566.863281 958.851562 L 564.519531 958.265625 L 556.90625 951.820312 L 556.320312 950.648438 L 553.390625 948.890625 L 551.046875 945.960938 L 546.945312 943.617188 L 545.773438 943.03125 L 545.773438 941.859375 L 544.015625 941.273438 L 541.675781 937.757812 L 534.644531 930.726562 L 534.644531 929.554688 L 532.886719 928.96875 L 532.886719 927.796875 L 530.542969 926.625 L 525.273438 920.765625 L 522.929688 918.421875 L 520.585938 915.492188 L 520 913.734375 L 517.65625 911.976562 L 517.65625 910.804688 L 516.484375 910.804688 L 515.898438 908.460938 L 513.558594 907.289062 L 512.386719 904.945312 L 512.386719 903.1875 L 510.042969 902.015625 L 506.527344 896.742188 L 503.597656 893.8125 L 501.253906 889.710938 L 498.914062 886.78125 L 497.15625 883.265625 L 497.15625 882.09375 L 495.984375 882.09375 L 491.882812 875.648438 L 491.882812 873.304688 L 490.125 872.71875 L 488.367188 869.203125 L 488.367188 866.859375 L 486.609375 866.273438 L 483.683594 860.414062 L 483.097656 857.484375 L 481.339844 855.726562 L 480.167969 852.796875 L 480.167969 851.039062 L 478.996094 851.039062 L 478.410156 849.867188 L 478.410156 846.351562 L 476.652344 845.765625 L 473.136719 838.148438 L 471.964844 835.21875 L 470.210938 830.53125 L 467.867188 826.429688 L 466.695312 822.328125 L 466.109375 821.742188 L 466.109375 817.054688 L 464.9375 817.054688 L 462.007812 806.507812 L 460.835938 803.578125 L 459.664062 799.476562 L 457.324219 789.515625 L 456.738281 784.828125 L 456.152344 783.65625 L 455.566406 777.210938 L 454.980469 776.039062 L 455.566406 773.109375 L 454.394531 773.109375 L 453.808594 770.765625 L 453.222656 767.835938 L 451.464844 753.773438 L 451.464844 748.5 L 450.292969 748.5 L 450.292969 698.695312 L 451.464844 698.695312 L 451.464844 691.664062 L 453.222656 677.601562 L 453.808594 677.015625 L 454.394531 671.742188 L 455.566406 668.226562 L 456.152344 662.953125 L 457.324219 658.851562 L 457.90625 653.578125 L 459.078125 650.0625 L 459.664062 647.132812 L 460.835938 647.132812 L 461.421875 641.273438 L 462.59375 636.585938 L 463.765625 636.585938 L 464.9375 630.726562 L 465.523438 630.140625 L 466.109375 625.453125 L 467.867188 624.867188 L 468.453125 620.765625 L 471.964844 611.390625 L 473.136719 610.804688 L 474.308594 605.53125 L 475.480469 603.1875 L 476.652344 603.1875 L 477.238281 600.257812 L 478.996094 596.742188 L 480.167969 596.742188 L 480.167969 593.226562 L 481.925781 589.710938 L 483.683594 589.125 L 484.269531 586.195312 L 486.609375 580.335938 L 489.539062 576.234375 L 491.296875 573.304688 L 493.054688 569.203125 L 496.570312 563.34375 L 497.15625 561.585938 L 498.328125 561.585938 L 499.5 558.65625 L 502.425781 554.554688 L 503.597656 554.554688 L 504.769531 551.039062 L 505.941406 549.28125 L 507.113281 549.28125 L 507.699219 547.523438 L 508.871094 547.523438 L 510.042969 545.179688 L 511.214844 543.421875 L 512.386719 543.421875 L 512.972656 541.078125 L 517.65625 534.632812 L 518.828125 534.632812 L 519.414062 532.289062 L 525.273438 525.84375 L 526.445312 524.085938 L 528.203125 524.085938 L 528.203125 522.328125 L 529.371094 522.328125 L 529.957031 519.984375 L 532.300781 518.226562 L 533.472656 518.226562 L 534.058594 515.882812 L 535.230469 515.882812 L 536.402344 512.953125 L 540.503906 509.4375 L 544.015625 505.335938 L 553.390625 497.132812 L 556.320312 495.960938 L 556.320312 494.789062 L 558.074219 494.789062 L 559.246094 492.445312 L 561.589844 491.273438 L 562.175781 489.515625 L 568.035156 485.414062 L 570.378906 485.414062 L 570.964844 483.070312 L 572.71875 483.070312 L 572.71875 481.898438 L 573.890625 481.898438 L 575.0625 478.96875 L 581.507812 475.453125 L 587.363281 471.351562 L 593.222656 467.835938 L 596.152344 467.835938 L 597.324219 465.492188 L 599.667969 465.492188 L 600.25 463.734375 L 602.59375 462.5625 L 604.351562 462.5625 L 604.351562 461.390625 L 606.695312 460.804688 L 607.867188 461.390625 L 607.867188 459.632812 L 613.140625 456.703125 L 623.683594 450.84375 L 629.539062 448.5 L 633.054688 446.15625 L 635.984375 446.15625 L 635.984375 444.984375 L 641.84375 442.640625 L 647.113281 440.296875 L 650.042969 439.125 L 650.628906 438.539062 L 655.902344 437.367188 L 656.488281 436.78125 L 660.585938 436.78125 L 660.585938 435.609375 L 665.273438 435.023438 L 665.273438 433.851562 L 672.886719 432.09375 L 682.261719 429.75 L 686.945312 428.578125 L 695.148438 428.578125 L 695.734375 426.820312 L 705.105469 426.234375 L 706.863281 426.820312 L 707.449219 425.0625 L 722.09375 423.890625 L 723.851562 423.304688 L 730.878906 423.890625 Z M 730.878906 422.71875 " fill-opacity="1" fill-rule="nonzero"/></g><path fill="#3b3834" d="M 719.164062 558.65625 L 732.050781 558.65625 L 739.667969 559.828125 L 749.625 562.757812 L 756.65625 566.859375 L 763.683594 573.304688 L 767.199219 576.234375 L 771.296875 577.40625 L 784.773438 578.578125 L 795.902344 581.507812 L 802.929688 585.023438 L 807.617188 588.539062 L 811.71875 592.640625 L 815.816406 599.085938 L 816.402344 602.601562 L 824.019531 603.773438 L 843.933594 606.117188 L 850.378906 607.875 L 855.066406 610.804688 L 859.164062 615.492188 L 863.265625 620.179688 L 867.953125 629.554688 L 870.296875 638.929688 L 870.882812 643.617188 L 870.882812 654.75 L 869.125 669.984375 L 865.023438 687.5625 L 862.09375 697.523438 L 877.324219 694.007812 L 889.625 689.320312 L 897.242188 685.804688 L 909.542969 679.945312 L 919.5 677.015625 L 932.386719 677.015625 L 940.003906 679.359375 L 945.859375 683.460938 L 949.960938 688.148438 L 952.890625 695.179688 L 953.476562 698.695312 L 953.476562 708.65625 L 951.132812 719.203125 L 947.617188 726.820312 L 943.515625 733.265625 L 935.316406 742.054688 L 930.042969 746.742188 L 924.1875 750.84375 L 913.644531 756.703125 L 899.582031 762.5625 L 890.210938 765.492188 L 867.953125 770.765625 L 853.308594 773.695312 L 852.136719 784.242188 L 850.964844 788.34375 L 851.550781 794.203125 L 853.308594 799.476562 L 853.894531 802.992188 L 853.894531 809.4375 L 852.136719 814.710938 L 848.621094 819.398438 L 843.933594 823.5 L 841.007812 826.429688 L 839.25 831.703125 L 835.148438 842.25 L 830.460938 849.867188 L 824.019531 856.898438 L 818.746094 861 L 809.960938 865.101562 L 804.6875 866.859375 L 794.730469 868.617188 L 774.226562 869.789062 L 765.441406 871.546875 L 755.484375 875.0625 L 744.351562 877.992188 L 739.667969 878.578125 L 709.207031 878.578125 L 694.5625 876.820312 L 677.574219 873.304688 L 654.144531 866.273438 L 637.742188 860.414062 L 628.953125 856.898438 L 616.066406 849.28125 L 613.726562 845.765625 L 607.867188 842.835938 L 606.109375 840.492188 L 606.109375 838.734375 L 604.9375 838.734375 L 604.9375 837.5625 L 602.007812 836.390625 L 599.082031 833.460938 L 591.464844 822.328125 L 586.777344 814.125 L 583.265625 804.75 L 580.335938 792.445312 L 579.164062 784.828125 L 579.164062 760.804688 L 580.335938 749.085938 L 583.265625 730.335938 L 583.265625 724.476562 L 582.09375 720.375 L 581.507812 718.03125 L 580.335938 718.03125 L 580.335938 716.273438 L 579.164062 716.273438 L 579.164062 715.101562 L 576.234375 714.515625 L 570.964844 710.414062 L 562.761719 705.140625 L 548.703125 698.109375 L 536.402344 692.835938 L 525.273438 686.976562 L 517.070312 680.53125 L 510.628906 674.671875 L 506.527344 668.8125 L 504.183594 663.539062 L 503.597656 660.609375 L 503.597656 641.859375 L 505.355469 634.828125 L 509.457031 626.625 L 514.144531 620.765625 L 517.070312 617.835938 L 521.757812 611.976562 L 527.03125 608.460938 L 536.402344 603.773438 L 544.601562 600.84375 L 553.976562 598.5 L 559.832031 597.328125 L 575.0625 597.328125 L 585.023438 599.085938 L 595.566406 602.601562 L 605.523438 607.875 L 611.382812 611.976562 L 617.824219 617.25 L 620.167969 619.59375 L 625.441406 623.695312 L 626.027344 627.210938 L 628.953125 627.796875 L 633.640625 633.65625 L 636.570312 637.171875 L 636.570312 638.929688 L 637.742188 638.929688 L 637.742188 634.242188 L 640.671875 625.453125 L 645.355469 616.078125 L 648.871094 610.21875 L 654.730469 601.429688 L 660 594.398438 L 661.171875 592.640625 L 663.515625 592.640625 L 664.101562 589.710938 L 668.203125 583.265625 L 673.472656 578.578125 L 682.261719 572.132812 L 693.976562 565.6875 L 703.347656 562.171875 L 711.550781 559.828125 Z M 719.164062 558.65625 " fill-opacity="1" fill-rule="nonzero"/><path fill="#ebb02a" d="M 562.761719 609.632812 L 573.304688 609.632812 L 582.679688 611.390625 L 590.878906 614.320312 L 599.082031 618.421875 L 605.523438 623.109375 L 609.039062 627.210938 L 614.308594 631.3125 L 617.824219 634.828125 L 618.410156 636.585938 L 623.097656 640.6875 L 628.371094 647.71875 L 630.125 650.648438 L 630.125 652.40625 L 632.46875 652.992188 L 635.984375 658.265625 L 635.398438 661.78125 L 630.710938 671.15625 L 628.371094 680.53125 L 627.199219 694.59375 L 620.753906 698.109375 L 617.824219 699.867188 L 616.652344 699.867188 L 616.652344 701.039062 L 614.894531 701.039062 L 614.308594 702.796875 L 613.140625 702.796875 L 611.96875 708.070312 L 611.96875 721.546875 L 617.824219 723.304688 L 619.582031 724.476562 L 618.996094 728.578125 L 616.652344 733.265625 L 611.96875 738.539062 L 606.695312 742.640625 L 603.765625 747.914062 L 603.179688 750.257812 L 603.179688 757.875 L 604.9375 763.734375 L 607.867188 767.835938 L 607.28125 772.523438 L 605.523438 782.484375 L 605.523438 792.445312 L 607.28125 800.648438 L 611.96875 810.609375 L 611.96875 812.367188 L 614.894531 813.539062 L 616.652344 816.46875 L 616.652344 817.640625 L 617.824219 817.640625 L 620.753906 820.570312 L 627.199219 825.84375 L 635.984375 831.703125 L 641.84375 835.21875 L 654.144531 841.078125 L 669.960938 846.9375 L 685.773438 851.625 L 712.722656 858.65625 L 737.324219 863.929688 L 742.011719 865.101562 L 740.253906 866.859375 L 733.808594 868.617188 L 730.292969 869.203125 L 716.820312 869.203125 L 695.734375 865.6875 L 678.160156 861.585938 L 660.585938 856.898438 L 648.285156 852.796875 L 633.640625 845.765625 L 623.683594 840.492188 L 617.824219 835.21875 L 615.480469 831.703125 L 615.480469 829.945312 L 613.140625 829.359375 L 610.210938 827.015625 L 603.179688 817.640625 L 597.910156 808.265625 L 594.394531 798.304688 L 592.050781 788.929688 L 590.878906 781.3125 L 590.878906 759.046875 L 592.050781 747.328125 L 594.394531 738.539062 L 594.980469 737.367188 L 602.59375 736.78125 L 602.007812 728.578125 L 599.082031 721.546875 L 594.394531 715.101562 L 587.949219 708.070312 L 582.679688 703.382812 L 572.71875 696.351562 L 558.074219 688.734375 L 542.847656 682.289062 L 532.886719 677.015625 L 525.273438 671.15625 L 520.585938 666.46875 L 516.484375 660.023438 L 514.726562 654.164062 L 514.726562 647.132812 L 515.898438 641.859375 L 520 633.65625 L 525.273438 627.210938 L 532.300781 621.351562 L 538.746094 617.25 L 548.117188 613.148438 L 555.734375 610.804688 Z M 562.761719 609.632812 " fill-opacity="1" fill-rule="nonzero"/><path fill="#393734" d="M 911.300781 567.445312 L 918.328125 567.445312 L 938.246094 570.375 L 979.25 575.0625 L 992.136719 576.820312 L 997.996094 579.164062 L 1000.335938 581.507812 L 1001.507812 583.851562 L 1001.507812 596.15625 L 994.480469 629.554688 L 983.351562 677.015625 L 976.320312 702.796875 L 969.292969 726.234375 L 961.089844 750.257812 L 955.234375 763.734375 L 952.890625 766.664062 L 948.789062 769.59375 L 946.445312 770.179688 L 927.117188 770.179688 L 923.601562 768.421875 L 923.601562 763.734375 L 928.871094 759.632812 L 936.488281 754.359375 L 941.761719 749.085938 L 947.617188 743.226562 L 954.648438 733.265625 L 960.503906 720.960938 L 962.847656 712.171875 L 963.433594 709.242188 L 963.433594 695.765625 L 961.675781 688.734375 L 956.988281 679.945312 L 951.71875 674.085938 L 946.445312 670.570312 L 940.589844 667.640625 L 931.214844 665.882812 L 921.257812 665.882812 L 911.300781 667.640625 L 906.027344 668.8125 L 899.582031 668.8125 L 898.414062 664.125 L 898.414062 641.273438 L 899.582031 578.578125 L 900.753906 573.890625 L 903.097656 570.960938 L 908.957031 568.03125 Z M 911.300781 567.445312 " fill-opacity="1" fill-rule="nonzero"/><path fill="#ebb02a" d="M 719.164062 570.375 L 730.878906 570.375 L 737.910156 571.546875 L 744.9375 574.476562 L 751.96875 579.75 L 757.824219 586.195312 L 761.339844 592.054688 L 763.097656 597.914062 L 763.097656 620.179688 L 760.753906 636.585938 L 757.238281 650.0625 L 750.796875 669.398438 L 743.765625 686.390625 L 737.324219 700.453125 L 734.980469 704.554688 L 729.707031 711 L 725.023438 716.273438 L 719.164062 720.375 L 715.0625 722.132812 L 709.207031 722.132812 L 703.347656 720.375 L 698.078125 716.859375 L 693.976562 712.757812 L 690.460938 706.898438 L 687.53125 699.28125 L 685.773438 688.734375 L 685.773438 661.195312 L 687.53125 646.546875 L 690.460938 632.484375 L 693.390625 621.351562 L 698.664062 605.53125 L 699.25 597.328125 L 689.875 597.328125 L 688.703125 602.601562 L 684.605469 613.734375 L 679.917969 630.726562 L 678.160156 633.070312 L 667.03125 637.171875 L 654.730469 643.617188 L 648.871094 647.71875 L 648.285156 647.71875 L 648.285156 641.273438 L 651.800781 630.726562 L 656.488281 621.351562 L 664.101562 609.632812 L 669.375 602.601562 L 671.714844 601.429688 L 675.816406 594.984375 L 684.019531 586.195312 L 693.976562 579.164062 L 705.105469 573.890625 L 712.136719 571.546875 Z M 616.066406 772.523438 L 620.167969 772.523438 L 625.441406 774.28125 L 627.785156 777.210938 L 631.882812 785.414062 L 636.570312 790.6875 L 642.429688 793.617188 L 648.285156 795.375 L 664.6875 797.132812 L 670.546875 798.890625 L 676.402344 802.40625 L 684.605469 810.023438 L 690.460938 813.539062 L 695.734375 815.882812 L 698.078125 816.46875 L 709.207031 816.46875 L 717.992188 814.710938 L 725.023438 814.710938 L 729.707031 817.640625 L 735.566406 822.328125 L 743.765625 826.429688 L 747.28125 827.601562 L 751.96875 828.1875 L 763.097656 828.1875 L 769.542969 825.84375 L 774.226562 823.5 L 777.742188 823.5 L 787.699219 828.1875 L 795.902344 831.117188 L 799.417969 831.703125 L 808.203125 831.703125 L 815.230469 829.945312 L 821.089844 826.429688 L 822.847656 823.5 L 827.535156 823.5 L 829.875 824.671875 L 829.289062 830.53125 L 826.363281 837.5625 L 822.261719 844.007812 L 820.503906 844.59375 L 819.332031 846.9375 L 814.058594 851.625 L 804.101562 855.726562 L 792.386719 858.65625 L 786.527344 859.242188 L 770.714844 859.242188 L 751.382812 857.484375 L 730.878906 853.96875 L 712.722656 849.867188 L 693.390625 844.59375 L 676.402344 839.90625 L 662.34375 835.21875 L 647.113281 828.1875 L 637.742188 822.328125 L 631.296875 817.640625 L 625.441406 812.367188 L 622.511719 809.4375 L 617.824219 803.578125 L 614.308594 796.546875 L 613.140625 790.6875 L 613.140625 778.382812 L 614.894531 773.695312 Z M 616.066406 772.523438 " fill-opacity="1" fill-rule="nonzero"/><path fill="#393734" d="M 909.542969 786.585938 L 924.773438 786.585938 L 937.074219 788.34375 L 944.6875 790.6875 L 951.71875 794.203125 L 958.746094 799.476562 L 962.847656 804.164062 L 965.191406 808.851562 L 967.535156 815.882812 L 968.707031 824.085938 L 968.707031 832.289062 L 966.949219 842.25 L 962.847656 852.210938 L 957.574219 859.242188 L 956.40625 859.242188 L 955.820312 861 L 949.960938 865.101562 L 942.929688 868.03125 L 936.488281 869.789062 L 931.214844 870.375 L 917.15625 870.375 L 908.371094 868.617188 L 899.582031 865.6875 L 893.140625 862.171875 L 887.28125 857.484375 L 884.941406 855.140625 L 884.941406 853.382812 L 882.597656 852.210938 L 879.667969 846.351562 L 877.910156 840.492188 L 876.738281 835.21875 L 876.738281 821.742188 L 878.496094 812.953125 L 883.183594 803.578125 L 887.867188 797.132812 L 894.3125 791.859375 L 900.167969 788.929688 Z M 909.542969 786.585938 " fill-opacity="1" fill-rule="nonzero"/><path fill="#ebb02a" d="M 773.054688 589.710938 L 778.914062 589.710938 L 785.941406 590.882812 L 794.144531 593.8125 L 800 597.914062 L 804.101562 603.773438 L 807.03125 610.21875 L 808.203125 615.492188 L 808.789062 620.765625 L 808.789062 641.859375 L 807.617188 652.992188 L 804.6875 667.054688 L 800 682.875 L 795.316406 695.179688 L 789.457031 708.65625 L 783.015625 719.789062 L 775.984375 729.164062 L 770.714844 735.023438 L 768.371094 735.609375 L 767.785156 737.953125 L 759.582031 742.054688 L 754.898438 743.226562 L 749.039062 743.226562 L 743.179688 740.882812 L 737.910156 736.195312 L 735.566406 731.507812 L 735.566406 722.71875 L 739.082031 716.859375 L 744.351562 709.828125 L 753.140625 694.007812 L 759.582031 679.359375 L 765.441406 662.953125 L 768.957031 648.890625 L 770.714844 638.929688 L 772.46875 628.96875 L 773.054688 621.351562 Z M 773.054688 589.710938 " fill-opacity="1" fill-rule="nonzero"/><path fill="#ebb02a" d="M 821.089844 615.492188 L 828.121094 615.492188 L 838.078125 617.835938 L 845.105469 620.765625 L 850.964844 625.453125 L 854.480469 630.140625 L 857.40625 638.34375 L 858.578125 646.546875 L 858.578125 658.265625 L 857.40625 668.8125 L 853.894531 684.632812 L 849.207031 698.109375 L 843.933594 710.414062 L 837.492188 722.71875 L 833.976562 727.40625 L 829.289062 733.265625 L 823.433594 738.539062 L 815.230469 743.226562 L 807.03125 745.570312 L 796.488281 745.570312 L 790.628906 743.8125 L 785.359375 740.882812 L 784.773438 739.710938 L 784.773438 736.195312 L 790.628906 727.992188 L 797.660156 715.101562 L 802.34375 704.554688 L 807.617188 689.90625 L 812.304688 673.5 L 818.160156 648.890625 L 819.332031 641.273438 L 819.332031 616.078125 Z M 921.257812 689.320312 L 930.628906 689.320312 L 936.488281 692.25 L 940.003906 696.9375 L 940.589844 698.109375 L 940.589844 709.242188 L 937.660156 717.445312 L 932.386719 725.648438 L 927.117188 730.921875 L 923.015625 735.609375 L 917.15625 740.882812 L 907.199219 746.742188 L 897.242188 750.84375 L 883.769531 754.945312 L 869.710938 757.875 L 863.851562 757.875 L 861.507812 755.53125 L 858.578125 750.257812 L 858.578125 744.984375 L 861.507812 738.539062 L 862.679688 731.507812 L 863.265625 710.414062 L 874.980469 708.070312 L 886.695312 704.554688 L 894.3125 701.625 L 905.441406 696.351562 L 914.226562 691.664062 Z M 658.828125 718.617188 L 661.757812 719.203125 L 675.230469 725.648438 L 689.875 732.679688 L 705.105469 738.539062 L 717.40625 742.054688 L 727.367188 744.398438 L 730.878906 746.742188 L 735.566406 751.429688 L 741.425781 754.359375 L 746.109375 755.53125 L 758.410156 755.53125 L 767.785156 753.1875 L 780.671875 753.1875 L 790.628906 756.117188 L 792.972656 757.289062 L 792.386719 759.046875 L 777.742188 766.078125 L 768.957031 771.9375 L 760.753906 777.796875 L 749.039062 786 L 743.179688 790.101562 L 735.566406 794.789062 L 731.464844 795.375 L 726.78125 791.859375 L 722.679688 788.34375 L 718.578125 783.65625 L 714.476562 780.140625 L 714.476562 778.96875 L 712.722656 778.382812 L 704.519531 769.007812 L 700.417969 765.492188 L 699.835938 762.5625 L 697.492188 761.976562 L 688.703125 752.601562 L 685.773438 749.671875 L 684.605469 747.914062 L 684.605469 746.15625 L 683.433594 746.15625 L 683.433594 744.398438 L 681.675781 744.398438 L 681.675781 742.640625 L 678.746094 742.054688 L 674.644531 737.367188 L 670.546875 732.679688 L 664.101562 725.648438 L 658.828125 719.203125 Z M 658.828125 718.617188 " fill-opacity="1" fill-rule="nonzero"/><path fill="#eaaf2a" d="M 616.066406 744.984375 L 618.410156 745.570312 L 622.511719 752.015625 L 626.613281 757.289062 L 631.296875 761.390625 L 636.570312 765.492188 L 648.285156 772.523438 L 661.757812 778.96875 L 672.886719 783.65625 L 686.945312 788.929688 L 708.035156 795.960938 L 726.78125 800.648438 L 738.496094 802.992188 L 744.9375 804.164062 L 759.582031 805.921875 L 777.15625 807.679688 L 784.773438 808.265625 L 810.546875 808.265625 L 821.675781 806.507812 L 832.21875 803.578125 L 839.25 800.0625 L 841.007812 798.890625 L 843.347656 799.476562 L 843.933594 800.0625 L 843.933594 808.265625 L 841.59375 812.367188 L 836.320312 815.882812 L 829.289062 815.882812 L 825.777344 814.710938 L 818.160156 814.125 L 816.988281 817.054688 L 813.476562 821.15625 L 808.203125 824.085938 L 805.859375 824.671875 L 800.585938 824.671875 L 792.972656 822.328125 L 782.429688 817.640625 L 777.742188 816.46875 L 769.542969 816.46875 L 761.925781 819.398438 L 755.484375 821.15625 L 751.382812 821.15625 L 744.351562 818.8125 L 742.011719 817.054688 L 740.839844 814.710938 L 735.566406 811.195312 L 730.878906 808.265625 L 726.78125 807.09375 L 717.992188 807.09375 L 710.378906 808.851562 L 701.003906 808.851562 L 694.5625 806.507812 L 689.289062 802.40625 L 682.847656 795.960938 L 676.402344 792.445312 L 668.789062 790.101562 L 658.828125 788.929688 L 650.042969 787.757812 L 643.011719 784.828125 L 638.914062 781.3125 L 633.054688 770.179688 L 628.953125 766.664062 L 620.167969 764.320312 L 614.894531 761.390625 L 611.382812 757.875 L 610.796875 756.117188 L 610.796875 752.015625 L 614.308594 746.742188 Z M 616.066406 744.984375 " fill-opacity="1" fill-rule="nonzero"/><path fill="#c0932c" d="M 673.472656 642.445312 L 676.402344 643.03125 L 676.402344 648.890625 L 675.816406 656.507812 L 675.816406 700.453125 L 669.960938 701.625 L 663.515625 702.210938 L 664.101562 709.828125 L 676.402344 709.828125 L 678.746094 711 L 683.433594 719.789062 L 683.433594 720.960938 L 679.332031 720.375 L 669.960938 716.273438 L 655.316406 708.070312 L 647.113281 702.796875 L 640.085938 697.523438 L 640.085938 695.179688 L 637.742188 695.179688 L 635.398438 689.90625 L 635.398438 679.945312 L 638.328125 672.328125 L 643.597656 665.296875 L 648.871094 659.4375 L 652.386719 656.507812 L 653.558594 656.507812 L 654.730469 653.578125 L 663.515625 648.304688 Z M 673.472656 642.445312 " fill-opacity="1" fill-rule="nonzero"/><path fill="#e9af2a" d="M 846.277344 752.601562 L 850.964844 752.601562 L 854.480469 756.703125 L 855.652344 759.632812 L 855.652344 762.5625 L 852.722656 764.320312 L 850.378906 764.90625 L 824.019531 766.078125 L 813.476562 767.25 L 794.730469 767.25 L 794.730469 766.078125 L 803.515625 761.976562 L 815.230469 757.875 L 829.289062 755.53125 L 841.59375 753.773438 Z M 630.125 702.210938 L 633.640625 702.796875 L 638.328125 706.3125 L 640.671875 709.242188 L 640.671875 711 L 643.011719 711.585938 L 648.285156 718.03125 L 651.214844 720.375 L 655.316406 725.0625 L 655.316406 726.234375 L 652.386719 725.648438 L 644.183594 720.960938 L 631.882812 717.445312 L 621.925781 716.273438 L 619.582031 714.515625 L 620.167969 710.414062 L 621.925781 707.484375 L 623.097656 707.484375 L 624.269531 705.140625 Z M 630.125 702.210938 " fill-opacity="1" fill-rule="nonzero"/></svg>