<svg xmlns="http://www.w3.org/2000/svg" xmlns:xlink="http://www.w3.org/1999/xlink" width="2000" zoomAndPan="magnify" viewBox="0 0 1500 1499.999933" height="2000" preserveAspectRatio="xMidYMid meet" version="1.0"><path fill="#fefefe" d="M 588.550781 482.496094 L 603.5625 482.496094 L 618.574219 484.371094 L 629.832031 487.183594 L 642.96875 492.8125 L 654.226562 501.253906 L 659.855469 508.753906 L 663.609375 518.132812 L 666.421875 532.203125 L 665.484375 545.332031 L 663.609375 552.835938 L 657.980469 564.089844 L 656.101562 564.089844 L 656.101562 565.964844 L 645.78125 573.46875 L 634.523438 579.09375 L 633.585938 583.785156 L 638.277344 584.722656 L 653.289062 580.035156 L 657.980469 578.15625 L 662.671875 578.15625 L 665.484375 580.972656 L 667.359375 608.167969 L 667.359375 620.363281 L 665.484375 622.238281 L 660.792969 623.175781 L 593.242188 623.175781 L 578.230469 622.238281 L 563.21875 617.546875 L 551.957031 611.921875 L 544.453125 606.292969 L 537.886719 599.730469 L 531.316406 588.472656 L 526.625 574.40625 L 524.75 562.214844 L 524.75 543.457031 L 527.566406 528.449219 L 531.316406 517.195312 L 536.945312 507.816406 L 546.328125 497.5 L 555.710938 490.9375 L 569.785156 485.308594 L 578.230469 483.433594 Z M 595.117188 536.890625 L 586.671875 539.707031 L 582.921875 543.457031 L 581.042969 549.085938 L 581.042969 557.523438 L 583.859375 563.152344 L 588.550781 566.902344 L 591.363281 567.839844 L 600.746094 567.839844 L 606.375 564.089844 L 609.191406 558.460938 L 610.128906 550.960938 L 607.3125 543.457031 L 602.625 538.765625 L 597.933594 536.890625 Z M 726.46875 484.371094 L 730.222656 486.246094 L 731.160156 488.121094 L 732.097656 529.390625 L 733.976562 534.078125 L 740.542969 535.953125 L 745.234375 533.140625 L 746.171875 531.265625 L 747.109375 489.0625 L 751.800781 484.371094 L 798.714844 484.371094 L 802.464844 487.183594 L 802.464844 579.09375 L 799.652344 592.226562 L 793.085938 605.355469 L 784.640625 613.796875 L 776.195312 618.484375 L 766.8125 622.238281 L 759.308594 624.113281 L 750.863281 625.050781 L 727.40625 625.050781 L 716.148438 623.175781 L 705.828125 620.363281 L 695.507812 614.734375 L 687.0625 607.230469 L 681.433594 597.851562 L 676.742188 582.847656 L 675.804688 569.71875 L 675.804688 490 L 676.742188 486.246094 L 678.621094 485.308594 Z M 852.191406 654.125 L 931.003906 654.125 L 941.324219 656.9375 L 954.460938 663.503906 L 963.84375 671.945312 L 969.472656 681.324219 L 973.226562 688.824219 L 976.039062 699.140625 L 977.917969 714.148438 L 977.917969 731.96875 L 976.039062 746.972656 L 972.285156 759.164062 L 966.65625 769.480469 L 961.027344 776.984375 L 952.582031 783.550781 L 943.203125 788.238281 L 929.128906 791.992188 L 852.191406 791.992188 L 850.316406 790.117188 L 849.378906 780.738281 L 849.378906 667.253906 L 850.316406 656 Z M 907.546875 702.894531 L 904.734375 705.707031 L 904.734375 740.410156 L 906.609375 742.285156 L 912.238281 743.222656 L 917.871094 740.410156 L 920.683594 735.71875 L 921.621094 729.152344 L 921.621094 716.023438 L 919.746094 708.519531 L 915.992188 703.832031 Z M 484.40625 652.25 L 506.921875 652.25 L 521.933594 655.0625 L 534.132812 659.753906 L 547.265625 669.128906 L 554.773438 678.507812 L 560.402344 688.824219 L 564.15625 700.082031 L 566.03125 711.335938 L 566.03125 734.78125 L 562.277344 751.664062 L 558.527344 761.042969 L 550.082031 774.171875 L 542.578125 780.738281 L 536.007812 785.425781 L 519.121094 791.992188 L 505.984375 793.867188 L 486.28125 793.867188 L 472.207031 791.992188 L 458.136719 786.363281 L 448.753906 780.738281 L 437.496094 769.480469 L 429.988281 755.414062 L 426.234375 740.410156 L 425.296875 731.96875 L 425.296875 715.085938 L 426.234375 704.769531 L 429.988281 690.703125 L 436.554688 678.507812 L 445 668.191406 L 457.195312 659.753906 L 469.394531 655.0625 Z M 491.910156 706.644531 L 485.34375 710.398438 L 482.53125 714.148438 L 481.589844 718.835938 L 481.589844 727.277344 L 484.40625 733.84375 L 488.160156 737.59375 L 492.851562 739.46875 L 499.417969 739.46875 L 506.921875 734.78125 L 509.738281 728.214844 L 509.738281 716.960938 L 505.984375 710.398438 L 501.292969 707.582031 L 499.417969 706.644531 Z M 1042.652344 652.25 L 1067.046875 652.25 L 1082.058594 655.0625 L 1093.320312 659.753906 L 1104.578125 667.253906 L 1104.578125 669.128906 L 1106.453125 669.128906 L 1106.453125 671.007812 L 1108.332031 671.007812 L 1108.332031 672.882812 L 1110.207031 672.882812 L 1116.773438 682.261719 L 1121.464844 692.578125 L 1125.21875 707.582031 L 1125.21875 732.90625 L 1123.34375 747.910156 L 1117.710938 761.980469 L 1110.207031 773.234375 L 1108.332031 773.234375 L 1106.453125 776.984375 L 1104.578125 776.984375 L 1103.640625 779.796875 L 1093.320312 786.363281 L 1079.246094 791.992188 L 1065.171875 793.867188 L 1046.40625 793.867188 L 1032.332031 791.992188 L 1015.445312 785.425781 L 1005.125 777.921875 L 997.617188 769.480469 L 991.988281 760.105469 L 988.238281 750.726562 L 985.421875 738.53125 L 985.421875 707.582031 L 989.175781 692.578125 L 996.679688 677.570312 L 1005.125 668.191406 L 1010.753906 663.503906 L 1025.765625 656 L 1036.085938 653.1875 Z M 1052.035156 706.644531 L 1046.40625 708.519531 L 1042.652344 713.210938 L 1041.714844 716.023438 L 1041.714844 729.152344 L 1044.53125 734.78125 L 1047.34375 737.59375 L 1052.035156 739.46875 L 1060.480469 738.53125 L 1065.171875 735.71875 L 1068.925781 730.09375 L 1068.925781 716.023438 L 1066.109375 711.335938 L 1061.417969 707.582031 L 1059.542969 706.644531 Z M 729.285156 654.125 L 811.847656 654.125 L 814.664062 657.875 L 817.476562 671.007812 L 823.109375 696.328125 L 825.921875 711.335938 L 836.242188 759.164062 L 840.933594 782.613281 L 840.933594 791.054688 L 839.996094 791.992188 L 781.824219 791.992188 L 779.011719 788.238281 L 776.195312 763.855469 L 775.257812 762.917969 L 764.9375 762.917969 L 764 763.855469 L 761.183594 789.175781 L 758.371094 791.992188 L 700.199219 791.992188 L 698.324219 790.117188 L 699.261719 781.675781 L 703.015625 762.917969 L 710.519531 729.152344 L 713.335938 714.148438 L 718.027344 692.578125 L 725.53125 657.875 Z M 767.753906 711.335938 L 765.875 714.148438 L 764.9375 739.46875 L 767.753906 742.285156 L 774.320312 741.347656 L 775.257812 739.46875 L 775.257812 731.03125 L 773.382812 712.273438 L 772.441406 711.335938 Z M 339.917969 652.25 L 357.746094 652.25 L 369.003906 654.125 L 378.386719 657.875 L 384.015625 660.691406 L 384.015625 662.566406 L 388.707031 664.441406 L 396.210938 671.945312 L 397.148438 675.695312 L 399.027344 675.695312 L 405.59375 688.824219 L 409.347656 699.140625 L 410.285156 705.707031 L 407.472656 710.398438 L 398.089844 712.273438 L 378.386719 714.148438 L 364.3125 716.023438 L 357.746094 716.023438 L 353.054688 712.273438 L 350.238281 708.519531 L 350.238281 706.644531 L 342.734375 705.707031 L 338.042969 709.457031 L 337.101562 712.273438 L 336.164062 724.464844 L 338.980469 732.90625 L 341.792969 737.59375 L 346.484375 740.410156 L 353.054688 740.410156 L 358.683594 736.65625 L 363.375 727.277344 L 372.757812 724.464844 L 398.089844 721.652344 L 401.839844 720.714844 L 416.851562 720.714844 L 418.730469 723.527344 L 418.730469 737.59375 L 416.851562 748.847656 L 412.160156 761.042969 L 406.53125 770.421875 L 398.089844 778.859375 L 387.769531 785.425781 L 372.757812 791.054688 L 359.621094 793.867188 L 334.289062 793.867188 L 323.03125 791.992188 L 308.019531 784.488281 L 298.636719 776.984375 L 290.191406 765.730469 L 284.5625 753.539062 L 280.808594 738.53125 L 278.933594 722.589844 L 278.933594 712.273438 L 280.808594 699.140625 L 284.5625 686.949219 L 289.253906 678.507812 L 296.757812 669.128906 L 305.203125 662.566406 L 317.402344 656.9375 L 331.472656 653.1875 Z M 577.289062 654.125 L 656.101562 654.125 L 671.113281 657.875 L 684.25 664.441406 L 694.570312 674.757812 L 701.136719 687.886719 L 703.015625 696.328125 L 703.015625 719.777344 L 700.199219 730.09375 L 694.570312 741.347656 L 688.003906 748.847656 L 678.621094 755.414062 L 665.484375 760.105469 L 656.101562 761.980469 L 636.398438 762.917969 L 630.769531 763.855469 L 630.769531 786.363281 L 627.957031 791.992188 L 577.289062 791.992188 L 575.414062 789.175781 L 575.414062 656.9375 Z M 634.523438 702.894531 L 630.769531 704.769531 L 630.769531 711.335938 L 632.648438 713.210938 L 642.96875 713.210938 L 646.71875 710.398438 L 645.78125 703.832031 L 643.90625 702.894531 Z M 816.539062 485.308594 L 857.824219 485.308594 L 864.390625 492.8125 L 864.390625 494.6875 L 869.082031 496.5625 L 871.894531 497.5 L 878.464844 497.5 L 905.671875 491.875 L 915.992188 490 L 921.621094 490 L 921.621094 523.761719 L 918.808594 525.636719 L 872.835938 526.574219 L 870.957031 531.265625 L 871.894531 535.015625 L 910.363281 535.953125 L 915.054688 537.828125 L 915.992188 539.707031 L 915.992188 566.902344 L 914.117188 570.65625 L 911.300781 571.59375 L 870.957031 572.53125 L 870.957031 580.972656 L 918.808594 581.910156 L 921.621094 583.785156 L 921.621094 620.363281 L 919.746094 622.238281 L 915.992188 623.175781 L 820.292969 623.175781 L 815.601562 620.363281 L 814.664062 618.484375 L 814.664062 490 Z M 1143.046875 646.621094 L 1158.058594 647.558594 L 1185.265625 651.3125 L 1188.082031 653.1875 L 1188.082031 663.503906 L 1185.265625 677.570312 L 1176.820312 711.335938 L 1170.253906 731.96875 L 1166.5 742.285156 L 1161.808594 746.972656 L 1152.425781 746.972656 L 1144.921875 744.160156 L 1142.105469 740.410156 L 1140.230469 728.214844 L 1139.292969 714.148438 L 1139.292969 651.3125 L 1141.167969 647.558594 Z M 1141.167969 757.289062 L 1155.242188 757.289062 L 1164.625 761.042969 L 1170.253906 766.667969 L 1172.128906 773.234375 L 1171.191406 785.425781 L 1170.253906 788.238281 L 1168.378906 788.238281 L 1166.5 791.992188 L 1158.996094 796.679688 L 1142.105469 796.679688 L 1132.722656 791.054688 L 1128.972656 786.363281 L 1127.09375 779.796875 L 1128.035156 771.359375 L 1130.847656 764.792969 L 1134.601562 761.042969 Z M 910.363281 449.671875 L 914.117188 451.546875 L 917.871094 460.925781 L 921.621094 473.117188 L 919.746094 476.867188 L 918.808594 477.804688 L 896.289062 481.558594 L 885.03125 484.371094 L 872.835938 484.371094 L 870.019531 479.683594 L 868.144531 473.117188 L 870.019531 468.425781 L 884.09375 461.863281 L 896.289062 456.234375 Z M 679.558594 833.257812 L 686.125 833.257812 L 692.695312 836.070312 L 696.445312 840.761719 L 695.507812 844.511719 L 689.878906 843.574219 L 687.0625 839.820312 L 680.496094 839.820312 L 677.683594 841.699219 L 679.558594 846.386719 L 692.695312 850.140625 L 697.382812 853.890625 L 697.382812 863.269531 L 695.507812 867.019531 L 688.941406 868.894531 L 679.558594 868.894531 L 672.992188 866.082031 L 669.238281 864.207031 L 668.300781 867.957031 L 643.90625 867.957031 L 642.96875 856.703125 L 643.90625 834.195312 L 667.359375 834.195312 L 668.300781 835.132812 L 668.300781 839.820312 L 650.472656 839.820312 L 649.535156 847.324219 L 667.359375 847.324219 L 667.359375 852.953125 L 651.410156 853.890625 L 651.410156 861.394531 L 670.175781 862.332031 L 670.175781 857.640625 L 675.804688 857.640625 L 677.683594 859.515625 L 677.683594 862.332031 L 686.125 863.269531 L 690.816406 860.457031 L 691.753906 856.703125 L 689.878906 856.703125 L 689.878906 854.828125 L 682.371094 853.890625 L 674.867188 851.078125 L 671.113281 846.386719 L 670.175781 840.761719 L 673.929688 835.132812 Z M 982.605469 834.195312 L 991.988281 834.195312 L 994.804688 839.820312 L 996.679688 851.078125 L 997.617188 855.765625 L 999.496094 854.828125 L 1003.25 841.699219 L 1005.125 834.195312 L 1014.507812 834.195312 L 1014.507812 867.957031 L 1008.878906 867.957031 L 1007.941406 849.199219 L 1004.1875 861.394531 L 1002.308594 867.019531 L 1001.371094 867.957031 L 995.742188 867.957031 L 990.113281 851.078125 L 990.113281 846.386719 L 988.238281 846.386719 L 988.238281 867.957031 L 983.546875 867.957031 L 982.605469 867.019531 Z M 491.910156 834.195312 L 509.738281 834.195312 L 514.429688 836.070312 L 517.242188 839.820312 L 517.242188 846.386719 L 515.367188 850.140625 L 519.121094 855.765625 L 517.242188 864.207031 L 512.554688 867.019531 L 509.738281 867.957031 L 490.972656 867.957031 L 490.035156 864.207031 L 490.035156 853.890625 L 490.972656 844.511719 L 490.972656 835.132812 Z M 498.480469 839.820312 L 497.542969 840.761719 L 497.542969 847.324219 L 501.292969 848.261719 L 509.738281 847.324219 L 511.613281 845.449219 L 510.675781 840.761719 L 509.738281 839.820312 Z M 497.542969 852.953125 L 497.542969 862.332031 L 509.738281 862.332031 L 512.554688 857.640625 L 509.738281 852.953125 Z M 455.320312 834.195312 L 465.640625 834.195312 L 471.269531 854.828125 L 471.269531 856.703125 L 473.148438 855.765625 L 477.839844 834.195312 L 487.21875 834.195312 L 488.160156 837.007812 L 487.21875 846.386719 L 482.53125 849.199219 L 481.589844 847.324219 L 476.898438 862.332031 L 475.023438 867.957031 L 468.457031 867.957031 L 464.703125 855.765625 L 463.765625 848.261719 L 461.886719 847.324219 L 461.886719 867.957031 L 455.320312 867.957031 L 454.382812 866.082031 Z M 809.972656 834.195312 L 818.417969 834.195312 L 821.230469 841.699219 L 824.046875 854.828125 L 825.921875 854.828125 L 827.800781 850.140625 L 830.613281 836.070312 L 831.550781 834.195312 L 841.871094 834.195312 L 840.933594 850.140625 L 839.996094 850.140625 L 839.996094 843.574219 L 836.242188 843.574219 L 835.304688 848.261719 L 831.550781 858.578125 L 828.738281 867.019531 L 822.167969 867.957031 L 817.476562 853.890625 L 815.601562 847.324219 L 814.664062 867.957031 L 809.972656 867.957031 L 809.035156 867.019531 L 809.035156 835.132812 Z M 948.832031 833.257812 L 955.398438 833.257812 L 961.027344 835.132812 L 961.027344 837.007812 L 964.78125 838.882812 L 967.59375 845.449219 L 967.59375 856.703125 L 964.78125 863.269531 L 960.089844 867.957031 L 955.398438 868.894531 L 947.894531 868.894531 L 942.261719 867.019531 L 938.511719 863.269531 L 935.695312 857.640625 L 935.695312 844.511719 L 940.386719 836.070312 L 943.203125 834.195312 Z M 946.953125 839.820312 L 943.203125 843.574219 L 942.261719 846.386719 L 942.261719 855.765625 L 945.078125 861.394531 L 947.894531 863.269531 L 955.398438 863.269531 L 960.089844 857.640625 L 961.027344 853.890625 L 961.027344 847.324219 L 959.152344 842.636719 L 956.335938 839.820312 Z M 593.242188 833.257812 L 599.808594 833.257812 L 606.375 836.070312 L 610.128906 840.761719 L 611.066406 844.511719 L 606.375 845.449219 L 603.5625 844.511719 L 603.5625 841.699219 L 601.683594 841.699219 L 601.683594 839.820312 L 596.054688 838.882812 L 590.425781 841.699219 L 588.550781 843.574219 L 587.613281 847.324219 L 587.613281 856.703125 L 591.363281 861.394531 L 596.992188 863.269531 L 602.625 860.457031 L 603.5625 856.703125 L 596.992188 854.828125 L 596.992188 850.140625 L 611.066406 851.078125 L 611.066406 867.957031 L 606.375 867.957031 L 603.5625 867.019531 L 597.933594 868.894531 L 591.363281 868.894531 L 585.734375 866.082031 L 581.980469 861.394531 L 580.105469 856.703125 L 580.105469 844.511719 L 584.796875 837.007812 L 588.550781 834.195312 Z M 551.019531 834.195312 L 570.722656 834.195312 L 576.351562 837.945312 L 577.289062 839.820312 L 577.289062 847.324219 L 575.414062 850.140625 L 577.289062 867.019531 L 576.351562 867.957031 L 571.660156 867.957031 L 569.785156 864.207031 L 568.847656 855.765625 L 556.648438 854.828125 L 556.648438 867.019531 L 551.957031 867.957031 L 550.082031 866.082031 L 551.019531 840.761719 L 550.082031 835.132812 Z M 557.589844 839.820312 L 556.648438 840.761719 L 556.648438 849.199219 L 569.785156 849.199219 L 571.660156 847.324219 L 571.660156 841.699219 L 569.785156 839.820312 Z M 905.671875 834.195312 L 911.300781 834.195312 L 912.238281 835.132812 L 913.179688 846.386719 L 926.3125 847.324219 L 926.3125 835.132812 L 927.25 834.195312 L 932.882812 834.195312 L 932.882812 867.957031 L 927.25 867.957031 L 926.3125 866.082031 L 926.3125 852.953125 L 913.179688 852.953125 L 913.179688 865.144531 L 911.300781 867.957031 L 906.609375 867.957031 L 905.671875 867.019531 Z M 520.996094 834.195312 L 526.625 834.195312 L 527.566406 835.132812 L 528.503906 860.457031 L 532.253906 863.269531 L 538.824219 862.332031 L 539.761719 857.640625 L 540.699219 834.195312 L 547.265625 834.195312 L 547.265625 861.394531 L 544.453125 866.082031 L 537.886719 868.894531 L 529.441406 868.894531 L 522.875 866.082031 L 520.058594 859.515625 L 520.058594 835.132812 Z M 613.882812 834.195312 L 620.449219 834.195312 L 621.386719 836.070312 L 621.386719 857.640625 L 623.265625 862.332031 L 627.957031 863.269531 L 632.648438 860.457031 L 633.585938 836.070312 L 634.523438 834.195312 L 640.152344 834.195312 L 641.089844 840.761719 L 641.089844 852.953125 L 640.152344 861.394531 L 636.398438 867.019531 L 631.707031 868.894531 L 622.324219 868.894531 L 617.636719 867.019531 L 614.820312 864.207031 L 612.945312 852.015625 Z M 393.398438 834.195312 L 399.027344 834.195312 L 399.964844 846.386719 L 412.160156 846.386719 L 413.101562 835.132812 L 414.039062 834.195312 L 419.667969 834.195312 L 419.667969 867.957031 L 414.039062 867.957031 L 413.101562 867.019531 L 412.160156 853.890625 L 399.964844 853.890625 L 399.027344 867.019531 L 398.089844 867.957031 L 393.398438 867.957031 L 392.460938 864.207031 L 392.460938 848.261719 Z M 1059.542969 833.257812 L 1068.925781 834.195312 L 1073.617188 837.945312 L 1074.554688 843.574219 L 1068.925781 843.574219 L 1065.171875 839.820312 L 1058.605469 839.820312 L 1056.726562 840.761719 L 1056.726562 845.449219 L 1071.738281 850.140625 L 1075.492188 853.890625 L 1076.429688 855.765625 L 1076.429688 861.394531 L 1072.675781 867.019531 L 1067.046875 868.894531 L 1058.605469 868.894531 L 1052.035156 866.082031 L 1049.222656 863.269531 L 1049.222656 858.578125 L 1052.035156 857.640625 L 1055.789062 859.515625 L 1058.605469 862.332031 L 1065.171875 863.269531 L 1068.925781 862.332031 L 1067.988281 855.765625 L 1053.914062 852.015625 L 1050.160156 848.261719 L 1049.222656 840.761719 L 1052.035156 836.070312 L 1054.851562 834.195312 Z M 738.667969 833.257812 L 748.988281 834.195312 L 750.863281 835.132812 L 750.863281 837.007812 L 752.742188 837.007812 L 752.742188 838.882812 L 754.617188 838.882812 L 754.617188 843.574219 L 748.988281 843.574219 L 747.109375 839.820312 L 739.605469 839.820312 L 736.789062 840.761719 L 736.789062 845.449219 L 748.988281 849.199219 L 754.617188 852.953125 L 756.492188 855.765625 L 756.492188 862.332031 L 751.800781 867.019531 L 747.109375 868.894531 L 738.667969 868.894531 L 731.160156 866.082031 L 728.347656 861.394531 L 728.347656 858.578125 L 733.039062 857.640625 L 735.851562 858.578125 L 736.789062 861.394531 L 740.542969 863.269531 L 747.109375 862.332031 L 748.988281 860.457031 L 748.050781 855.765625 L 736.789062 852.953125 L 731.160156 849.199219 L 729.285156 844.511719 L 730.222656 837.945312 L 734.914062 834.195312 Z M 709.582031 834.195312 L 717.085938 834.195312 L 720.839844 842.636719 L 723.65625 852.015625 L 726.46875 858.578125 L 728.347656 867.957031 L 721.777344 867.019531 L 719.902344 861.394531 L 709.582031 861.394531 L 706.765625 862.332031 L 703.953125 867.019531 L 703.015625 867.957031 L 697.382812 867.957031 L 700.199219 858.578125 L 706.765625 839.820312 Z M 712.394531 843.574219 L 708.644531 854.828125 L 709.582031 855.765625 L 717.085938 855.765625 L 716.148438 848.261719 L 713.335938 843.574219 Z M 771.503906 842.636719 L 777.132812 843.574219 L 778.074219 859.515625 L 779.949219 863.269531 L 784.640625 862.332031 L 786.515625 858.578125 L 786.515625 843.574219 L 792.144531 842.636719 L 793.085938 843.574219 L 793.085938 872.648438 L 788.394531 878.273438 L 782.765625 880.148438 L 776.195312 879.210938 L 771.503906 874.523438 L 770.566406 870.773438 L 771.503906 869.832031 L 776.195312 869.832031 L 779.011719 873.585938 L 785.578125 872.648438 L 786.515625 866.082031 L 783.703125 867.957031 L 776.195312 867.957031 L 771.503906 863.269531 L 770.566406 852.953125 L 770.566406 843.574219 Z M 1029.519531 834.195312 L 1037.023438 834.195312 L 1040.777344 843.574219 L 1046.40625 859.515625 L 1048.285156 862.332031 L 1048.285156 867.957031 L 1042.652344 867.957031 L 1040.777344 866.082031 L 1038.902344 861.394531 L 1027.640625 861.394531 L 1023.890625 867.019531 L 1018.261719 867.957031 L 1019.199219 861.394531 L 1023.890625 847.324219 L 1026.703125 839.820312 Z M 1032.332031 843.574219 L 1028.582031 852.953125 L 1028.582031 855.765625 L 1037.023438 855.765625 L 1036.085938 849.199219 L 1034.210938 844.511719 Z M 434.679688 834.195312 L 441.246094 834.195312 L 444.0625 838.882812 L 448.753906 852.953125 L 453.445312 867.019531 L 452.507812 867.957031 L 446.875 867.957031 L 443.125 861.394531 L 430.925781 861.394531 L 429.050781 867.019531 L 427.171875 867.957031 L 421.542969 867.957031 L 428.113281 848.261719 L 432.804688 836.070312 Z M 435.617188 843.574219 L 432.804688 855.765625 L 441.246094 855.765625 L 442.183594 852.953125 L 438.433594 843.574219 Z M 844.6875 834.195312 L 851.253906 834.195312 L 852.191406 860.457031 L 854.070312 862.332031 L 860.636719 862.332031 L 863.453125 859.515625 L 864.390625 849.199219 L 864.390625 840.761719 L 865.328125 834.195312 L 870.957031 834.195312 L 870.957031 861.394531 L 868.144531 866.082031 L 861.574219 868.894531 L 853.132812 868.894531 L 847.5 866.082031 L 844.6875 860.457031 Z M 885.96875 833.257812 L 893.476562 833.257812 L 900.980469 837.007812 L 903.796875 841.699219 L 902.859375 845.449219 L 897.226562 844.511719 L 894.414062 840.761719 L 887.847656 839.820312 L 883.15625 842.636719 L 882.214844 844.511719 L 882.214844 858.578125 L 885.96875 862.332031 L 894.414062 861.394531 L 898.167969 856.703125 L 903.796875 856.703125 L 901.917969 862.332031 L 897.226562 867.019531 L 893.476562 868.894531 L 885.96875 868.894531 L 879.402344 866.082031 L 876.585938 863.269531 L 873.773438 855.765625 L 873.773438 847.324219 L 877.523438 838.882812 L 882.214844 834.195312 Z M 301.449219 851.078125 L 366.1875 851.078125 L 366.1875 853.890625 L 345.546875 854.828125 L 330.535156 854.828125 L 300.511719 853.890625 L 299.574219 852.015625 Z M 1105.515625 851.078125 L 1164.625 851.078125 L 1166.5 852.953125 L 1165.5625 853.890625 L 1104.578125 853.890625 L 1103.640625 852.015625 Z M 1105.515625 851.078125 " fill-opacity="1" fill-rule="nonzero"/><path fill="#fefefe" d="M 481.589844 852.015625 L 483.46875 852.015625 L 484.40625 858.578125 L 487.21875 858.578125 L 488.160156 861.394531 L 488.160156 867.957031 L 482.53125 867.957031 L 481.589844 867.019531 Z M 839.996094 852.953125 L 840.933594 852.953125 L 840.933594 867.957031 L 836.242188 867.957031 L 835.304688 867.019531 L 835.304688 862.332031 L 839.058594 861.394531 Z M 1037.023438 822.941406 L 1039.839844 822.941406 L 1038.902344 826.691406 L 1032.332031 830.445312 L 1029.519531 830.445312 L 1031.394531 826.691406 Z M 1037.023438 822.941406 " fill-opacity="1" fill-rule="nonzero"/></svg>